PathFileType	4	(X/Y/Z)	C:\Users\italobelli\Desktop\GitHub\PTbot_officialCBL\Personal_Results\SHRUG21_noisy2.trc
DataRate	CameraRate	NumFrames	NumMarkers	Units	OrigDataRate	OrigDataStartFrame	OrigNumFrames
112.250000	112.250000	25	9	m	112.250000	282	450
Frame#	Time		gu		centelbow		EpL		centpxt8		centijc7		ij		ts		aa		ai
			X1	Y1	Z1	X2	Y2	Z2	X3	Y3	Z3	X4	Y4	Z4	X5	Y5	Z5	X6	Y6	Z6	X7	Y7	Z7	X8	Y8	Z8	X9	Y9	Z9

282	2.5033	-0.099274	0.049292	0.16044	-0.12922	-0.19812	0.20083	-0.11801	-0.18965	0.22985	-0.046816	-0.15316	-0.008669	-0.046816	0.031938	-0.008669	0	0	0	-0.1366	0.056117	0.030971	-0.1305	0.084635	0.14661	-0.15921	-0.050187	0.063731
283	2.5122	-0.099217	0.049136	0.16047	-0.12918	-0.19837	0.2006	-0.11794	-0.18992	0.22962	-0.046816	-0.15316	-0.008669	-0.046816	0.031938	-0.008669	0	0	0	-0.13661	0.056083	0.031021	-0.13041	0.0845	0.14666	-0.15925	-0.050234	0.063644
284	2.5212	-0.099145	0.048874	0.16052	-0.12913	-0.19871	0.20034	-0.11785	-0.19029	0.22936	-0.046816	-0.15316	-0.008669	-0.046816	0.031938	-0.008669	0	0	0	-0.13661	0.05601	0.031103	-0.13031	0.08426	0.14675	-0.15929	-0.050327	0.06354
285	2.5301	-0.099059	0.04851	0.16057	-0.12907	-0.19915	0.20005	-0.11775	-0.19077	0.22906	-0.046816	-0.15316	-0.008669	-0.046816	0.031938	-0.008669	0	0	0	-0.13662	0.0559	0.031216	-0.13018	0.083919	0.14687	-0.15934	-0.050463	0.063421
286	2.539	-0.098959	0.048048	0.16064	-0.12901	-0.19966	0.19973	-0.11763	-0.19133	0.22874	-0.046816	-0.15316	-0.008669	-0.046816	0.031938	-0.008669	0	0	0	-0.13663	0.055755	0.03136	-0.13002	0.08348	0.14703	-0.1594	-0.050642	0.063287
287	2.5479	-0.098845	0.047492	0.16071	-0.12894	-0.20026	0.19939	-0.11751	-0.19199	0.22839	-0.046816	-0.15316	-0.008669	-0.046816	0.031938	-0.008669	0	0	0	-0.13663	0.055575	0.031532	-0.12985	0.082949	0.14721	-0.15946	-0.050861	0.063138
288	2.5568	-0.098719	0.046846	0.16079	-0.12887	-0.20094	0.19901	-0.11738	-0.19273	0.22801	-0.046816	-0.15316	-0.008669	-0.046816	0.031938	-0.008669	0	0	0	-0.13664	0.055362	0.031731	-0.12966	0.082328	0.14742	-0.15952	-0.05112	0.062975
289	2.5657	-0.098581	0.046113	0.16088	-0.12878	-0.20169	0.19862	-0.11723	-0.19355	0.22761	-0.046816	-0.15316	-0.008669	-0.046816	0.031938	-0.008669	0	0	0	-0.13665	0.055117	0.031957	-0.12944	0.081622	0.14766	-0.15958	-0.051415	0.062799
290	2.5746	-0.098431	0.045299	0.16097	-0.12869	-0.20252	0.1982	-0.11708	-0.19445	0.22718	-0.046816	-0.15316	-0.008669	-0.046816	0.031938	-0.008669	0	0	0	-0.13665	0.054843	0.032208	-0.12921	0.080835	0.14793	-0.15964	-0.051746	0.062611
291	2.5835	-0.09827	0.044406	0.16108	-0.1286	-0.20341	0.19776	-0.11692	-0.19543	0.22673	-0.046816	-0.15316	-0.008669	-0.046816	0.031938	-0.008669	0	0	0	-0.13666	0.054539	0.032482	-0.12897	0.07997	0.14822	-0.15971	-0.05211	0.06241
292	2.5924	-0.098099	0.04344	0.16119	-0.1285	-0.20436	0.1973	-0.11675	-0.19647	0.22626	-0.046816	-0.15316	-0.008669	-0.046816	0.031938	-0.008669	0	0	0	-0.13667	0.054209	0.03278	-0.1287	0.079032	0.14853	-0.15979	-0.052507	0.062198
293	2.6013	-0.097918	0.042403	0.1613	-0.1284	-0.20538	0.19681	-0.11658	-0.19758	0.22577	-0.046816	-0.15316	-0.008669	-0.046816	0.031938	-0.008669	0	0	0	-0.13667	0.053853	0.033098	-0.12842	0.078024	0.14887	-0.15986	-0.052934	0.061976
294	2.6102	-0.097728	0.0413	0.16143	-0.12829	-0.20645	0.19631	-0.11639	-0.19875	0.22526	-0.046816	-0.15316	-0.008669	-0.046816	0.031938	-0.008669	0	0	0	-0.13668	0.053472	0.033437	-0.12813	0.076951	0.14923	-0.15994	-0.05339	0.061743
295	2.6192	-0.097529	0.040135	0.16156	-0.12817	-0.20757	0.1958	-0.1162	-0.19998	0.22474	-0.046816	-0.15316	-0.008669	-0.046816	0.031938	-0.008669	0	0	0	-0.13669	0.053069	0.033794	-0.12782	0.075816	0.14961	-0.16002	-0.053872	0.0615
296	2.6281	-0.097322	0.038912	0.16169	-0.12805	-0.20875	0.19527	-0.11601	-0.20127	0.22419	-0.046816	-0.15316	-0.008669	-0.046816	0.031938	-0.008669	0	0	0	-0.1367	0.052644	0.03417	-0.12749	0.074624	0.15001	-0.1601	-0.05438	0.061249
297	2.637	-0.097108	0.037634	0.16183	-0.12793	-0.20997	0.19472	-0.11581	-0.2026	0.22364	-0.046816	-0.15316	-0.008669	-0.046816	0.031938	-0.008669	0	0	0	-0.1367	0.052199	0.034561	-0.12716	0.073378	0.15042	-0.16018	-0.054912	0.06099
298	2.6459	-0.096887	0.036306	0.16197	-0.12781	-0.21123	0.19416	-0.1156	-0.20398	0.22307	-0.046816	-0.15316	-0.008669	-0.046816	0.031938	-0.008669	0	0	0	-0.13671	0.051735	0.034968	-0.12682	0.072082	0.15086	-0.16027	-0.055465	0.060722
299	2.6548	-0.09666	0.034932	0.16212	-0.12768	-0.21253	0.19359	-0.11539	-0.20541	0.22249	-0.046816	-0.15316	-0.008669	-0.046816	0.031938	-0.008669	0	0	0	-0.13672	0.051254	0.035389	-0.12646	0.07074	0.1513	-0.16035	-0.056038	0.060448
300	2.6637	-0.096427	0.033516	0.16227	-0.12755	-0.21386	0.19301	-0.11517	-0.20687	0.22189	-0.046816	-0.15316	-0.008669	-0.046816	0.031938	-0.008669	0	0	0	-0.13673	0.050758	0.035822	-0.1261	0.069356	0.15176	-0.16044	-0.05663	0.060168
301	2.6726	-0.09619	0.032062	0.16243	-0.12742	-0.21523	0.19242	-0.11496	-0.20837	0.22129	-0.046816	-0.15316	-0.008669	-0.046816	0.031938	-0.008669	0	0	0	-0.13674	0.050247	0.036267	-0.12573	0.067935	0.15223	-0.16053	-0.057238	0.059881
302	2.6815	-0.095948	0.030573	0.16259	-0.12728	-0.21663	0.19183	-0.11473	-0.20989	0.22068	-0.046816	-0.15316	-0.008669	-0.046816	0.031938	-0.008669	0	0	0	-0.13674	0.049723	0.036723	-0.12535	0.066479	0.15272	-0.16063	-0.057862	0.05959
303	2.6904	-0.095702	0.029054	0.16275	-0.12715	-0.21805	0.19122	-0.11451	-0.21145	0.22007	-0.046816	-0.15316	-0.008669	-0.046816	0.031938	-0.008669	0	0	0	-0.13675	0.049188	0.037187	-0.12496	0.064994	0.15321	-0.16072	-0.058499	0.059294
304	2.6993	-0.095452	0.027508	0.16291	-0.12701	-0.21949	0.19061	-0.11428	-0.21302	0.21945	-0.046816	-0.15316	-0.008669	-0.046816	0.031938	-0.008669	0	0	0	-0.13676	0.048642	0.037659	-0.12457	0.063483	0.15371	-0.16081	-0.059147	0.058994
305	2.7082	-0.0952	0.02594	0.16308	-0.12687	-0.22094	0.19	-0.11406	-0.21462	0.21882	-0.046816	-0.15316	-0.008669	-0.046816	0.031938	-0.008669	0	0	0	-0.13677	0.048089	0.038138	-0.12418	0.061949	0.15422	-0.16091	-0.059805	0.058691
306	2.7171	-0.094947	0.024354	0.16324	-0.12673	-0.22241	0.18938	-0.11383	-0.21623	0.21819	-0.046816	-0.15316	-0.008669	-0.046816	0.031938	-0.008669	0	0	0	-0.13678	0.047528	0.038623	-0.12378	0.060397	0.15473	-0.16101	-0.060472	0.058385
